<svg width="104" height="111" viewBox="0 0 104 111" fill="none" xmlns="http://www.w3.org/2000/svg">
    <path
        d="M37.4179 105.508C37.5052 105.386 37.5925 105.264 37.6973 105.159H36.9813C36.8416 105.159 36.7368 105.264 36.7368 105.404V106.941C36.7717 106.871 36.8067 106.801 36.8241 106.713C36.9813 106.294 37.1909 105.893 37.4179 105.508Z"
        fill="#43A9AC" />
    <path
        d="M38.8324 105.054C38.2911 105.054 37.9767 105.281 37.6973 105.701C37.4179 106.12 36.9988 107.29 36.7892 107.639C36.5796 107.988 36.3177 108.233 35.9335 108.233C35.4445 108.233 35.3048 107.936 35.3048 107.552V105.177H34.2919V107.726C34.2919 108.862 35.0428 109.106 35.6541 109.106C36.0907 109.123 36.5098 108.896 36.7368 108.53V109.001H37.7497V107.063C37.7497 106.434 38.064 105.928 38.553 105.928C39.042 105.928 39.1817 106.225 39.1817 106.609V108.984H40.1946V106.434C40.1946 105.299 39.4262 105.054 38.8324 105.054Z"
        fill="white" />
    <path
        d="M29.3672 107.517C29.2973 106.871 29.0528 106.591 28.5464 106.452V106.434C29.1576 106.312 29.5767 105.753 29.5243 105.142C29.5243 104.251 28.8433 103.657 27.8129 103.657H25.368V108.984H26.4507V106.853H27.3239C27.9875 106.853 28.3194 107.185 28.3717 107.761C28.4241 108.338 28.4241 108.931 28.5638 108.984H29.5942V108.931C29.4021 108.844 29.437 108.268 29.3672 107.517ZM27.6033 106.015H26.4507V104.531H27.6383C28.2146 104.531 28.494 104.862 28.494 105.281C28.4765 105.701 28.1796 106.015 27.6033 106.015Z"
        fill="white" />
    <path
        d="M31.9518 105.054C30.8341 105.054 30.0657 105.928 30.0657 107.063C30.0657 108.198 30.7817 109.089 32.0566 109.089C33.0345 109.089 33.6458 108.512 33.7855 107.831H32.79C32.6853 108.146 32.3709 108.338 32.0566 108.303C31.4803 108.303 31.1485 107.936 31.0786 107.342H33.8553C33.8379 105.997 33.1742 105.054 31.9518 105.054ZM31.0786 106.661C31.1659 106.155 31.4279 105.84 31.9693 105.84C32.4058 105.84 32.7726 106.19 32.79 106.644V106.661H31.0786Z"
        fill="white" />
    <path
        d="M42.5347 105.054C41.4171 105.054 40.6487 105.928 40.6487 107.063C40.6487 108.198 41.3647 109.089 42.6395 109.089C43.6175 109.089 44.2287 108.512 44.3684 107.831H43.373C43.2682 108.146 42.9539 108.338 42.6395 108.303C42.0632 108.303 41.7314 107.936 41.6616 107.342H44.4383C44.4208 105.997 43.7747 105.054 42.5347 105.054ZM41.6616 106.661C41.7489 106.155 42.0108 105.84 42.5522 105.84C42.9888 105.84 43.3555 106.19 43.373 106.644V106.661H41.6616Z"
        fill="white" />
    <path
        d="M45.8878 105.77H45.8703V105.159H44.8923V108.984H45.9052V107.133C45.9052 106.329 46.3767 106.05 47.0404 106.05H47.0578V105.159C46.4117 105.142 46.1148 105.334 45.8878 105.77Z"
        fill="white" />
    <path
        d="M49.4329 108.233C49.2408 108.268 49.0836 108.128 49.0487 107.953C49.0487 107.918 49.0487 107.884 49.0487 107.849V106.032H49.7123V105.142H49.0487V103.972H48.0533V105.142H47.5293V106.032H48.5597C48.4898 106.102 48.4375 106.172 48.3851 106.242C48.2628 106.452 48.1406 106.696 48.0533 106.923V108.076C48.0533 108.792 48.5946 108.984 49.0836 108.984C49.4853 108.984 49.7123 108.966 49.7123 108.966V108.215C49.7298 108.215 49.5551 108.233 49.4329 108.233Z"
        fill="white" />
    <path
        d="M22.242 109.071C22.1198 109.141 21.9801 109.176 21.7705 109.176C21.4387 109.176 21.2117 108.984 21.2117 108.565C20.8449 108.984 20.3734 109.176 19.8146 109.176C19.0986 109.176 18.5048 108.862 18.5048 108.058C18.5048 107.168 19.1684 106.975 19.8495 106.836C20.5655 106.696 21.1942 106.748 21.1942 106.259C21.1942 105.683 20.7227 105.596 20.3036 105.596C19.7447 105.596 19.3431 105.77 19.3081 106.347H18.662C18.6969 105.369 19.4653 105.02 20.3385 105.02C21.0545 105.02 21.8229 105.177 21.8229 106.102V108.146C21.8229 108.46 21.8229 108.6 22.0325 108.6C22.0848 108.6 22.1547 108.6 22.2246 108.565V109.071H22.242ZM21.1767 107.028C20.9148 107.22 20.4258 107.22 19.9892 107.29C19.5526 107.36 19.1859 107.517 19.1859 108.006C19.1859 108.442 19.5526 108.582 19.9543 108.582C20.81 108.582 21.1767 108.041 21.1767 107.691V107.028Z"
        fill="white" />
    <path
        d="M55.6848 106.382C55.58 105.875 55.2308 105.596 54.7069 105.596C53.7638 105.596 53.4669 106.347 53.4669 107.15C53.4669 107.884 53.7988 108.6 54.6195 108.6C55.2482 108.6 55.6324 108.233 55.7023 107.639H56.3659C56.2262 108.6 55.615 109.176 54.6195 109.176C53.3971 109.176 52.7684 108.338 52.7684 107.15C52.7684 105.963 53.3796 105.02 54.637 105.02C55.5277 105.02 56.2611 105.439 56.3484 106.382H55.6848Z"
        fill="white" />
    <path
        d="M59.0204 105.02C60.2778 105.02 60.9414 105.928 60.9414 107.098C60.9414 108.25 60.2778 109.176 59.0204 109.176C57.763 109.176 57.0994 108.268 57.0994 107.098C57.0819 105.945 57.763 105.02 59.0204 105.02ZM59.0204 108.6C59.7015 108.6 60.2603 108.058 60.2603 107.098C60.2603 106.137 59.7015 105.596 59.0204 105.596C58.3393 105.596 57.7805 106.137 57.7805 107.098C57.7805 108.058 58.3393 108.6 59.0204 108.6Z"
        fill="white" />
    <path
        d="M61.9193 105.107H62.5306V105.683H62.548C62.8449 105.229 63.2815 105.002 63.8229 105.002C64.3119 105.002 64.7484 105.194 64.9056 105.683C65.1676 105.264 65.6391 105.002 66.1455 105.002C66.9314 105.002 67.4728 105.334 67.4728 106.155V109.071H66.8266V106.469C66.8266 105.98 66.7044 105.578 66.0582 105.578C65.4295 105.578 65.0279 105.98 65.0279 106.591V109.071H64.3817V106.469C64.3817 105.963 64.2245 105.578 63.6308 105.578C62.8624 105.578 62.5655 106.294 62.5655 106.591V109.071H61.9193V105.107Z"
        fill="white" />
    <path
        d="M68.6952 105.107H69.3414V105.648H69.3588C69.5684 105.212 70.0748 105.02 70.6337 105.02C71.8561 105.02 72.4674 105.98 72.4674 107.115C72.4674 108.25 71.8736 109.176 70.6511 109.176C70.2495 109.176 69.6557 109.019 69.3763 108.547H69.3588V110.59H68.7127V105.107H68.6952ZM70.5289 105.596C69.6557 105.596 69.3064 106.347 69.3064 107.098C69.3064 107.884 69.6557 108.6 70.5638 108.6C71.4545 108.6 71.7514 107.831 71.7514 107.063C71.7688 106.329 71.3846 105.596 70.5289 105.596Z"
        fill="white" />
    <path
        d="M76.938 109.071C76.8158 109.141 76.6761 109.176 76.4665 109.176C76.1347 109.176 75.9077 108.984 75.9077 108.565C75.541 108.984 75.0694 109.176 74.5106 109.176C73.7946 109.176 73.2008 108.862 73.2008 108.058C73.2008 107.168 73.8645 106.975 74.5455 106.836C75.2615 106.696 75.8902 106.748 75.8902 106.259C75.8902 105.683 75.4187 105.596 74.9996 105.596C74.4408 105.596 74.0391 105.77 74.0042 106.347H73.358C73.3929 105.369 74.1613 105.02 75.0345 105.02C75.7505 105.02 76.5189 105.177 76.5189 106.102V108.146C76.5189 108.46 76.5189 108.6 76.7285 108.6C76.7809 108.6 76.8507 108.6 76.9206 108.565V109.071H76.938ZM75.8902 107.028C75.6283 107.22 75.1393 107.22 74.7027 107.29C74.2661 107.36 73.8994 107.517 73.8994 108.006C73.8994 108.442 74.2661 108.582 74.6678 108.582C75.5235 108.582 75.8902 108.041 75.8902 107.691V107.028Z"
        fill="white" />
    <path
        d="M77.7588 105.107H78.3701V105.736H78.3875C78.6669 105.247 79.1035 105.02 79.6798 105.02C80.7276 105.02 81.042 105.613 81.042 106.469V109.089H80.3958V106.399C80.3958 105.91 80.0815 105.596 79.5925 105.596C78.8067 105.596 78.4225 106.12 78.4225 106.836V109.071H77.7763V105.107H77.7588Z"
        fill="white" />
    <path
        d="M83.7838 109.612C83.4869 110.381 83.2075 110.678 82.6312 110.678C82.474 110.678 82.3168 110.66 82.1771 110.608V110.014C82.2994 110.049 82.4391 110.101 82.5613 110.101C82.8233 110.101 82.9805 109.979 83.1027 109.735L83.3647 109.054L81.7929 105.107H82.5264L83.679 108.355H83.6965L84.8141 105.107H85.5127L83.7838 109.612Z"
        fill="white" />
    <g filter="url(#filter0_d_101_3)">
        <path
            d="M52 94C75.196 94 94 75.196 94 52C94 28.804 75.196 10 52 10C28.804 10 10 28.804 10 52C10 75.196 28.804 94 52 94Z"
            fill="black" />
    </g>
    <path fill-rule="evenodd" clip-rule="evenodd"
        d="M82.6836 45.1368C82.8058 44.8399 82.736 44.4906 82.5264 44.2462C82.3692 44.0715 82.1422 43.9842 81.9152 44.0017C81.6881 44.0017 81.4611 43.9318 81.3039 43.7921C81.2166 43.7048 81.1293 43.6175 81.0595 43.5301L79.8894 42.2204C79.9243 42.1855 80.7451 41.2599 81.0595 40.9106C81.1293 40.8233 81.2166 40.736 81.3039 40.6487C81.4786 40.5089 81.7056 40.4216 81.9152 40.4391C82.1422 40.4566 82.3867 40.3692 82.5439 40.1946C82.7534 39.9501 82.8233 39.6008 82.701 39.304C82.5963 38.9896 82.2994 38.78 81.9676 38.7975C81.1119 38.7975 80.5006 39.2166 79.9593 39.8279C79.6798 40.1247 78.9813 40.9455 78.9289 41.0154C78.8765 40.963 78.178 40.1247 77.8985 39.8279C77.3572 39.2166 76.7459 38.7975 75.8902 38.7975C75.5584 38.78 75.2615 38.9896 75.1568 39.304C75.0345 39.6008 75.1044 39.9501 75.3139 40.1946C75.4711 40.3692 75.6981 40.4566 75.9426 40.4391C76.1696 40.4391 76.3967 40.5089 76.5713 40.6487C76.6586 40.736 76.7459 40.8233 76.8158 40.9106C77.1301 41.2599 77.9509 42.1855 77.9859 42.2204L76.8158 43.5301C76.7459 43.6175 76.6586 43.7048 76.5713 43.7921C76.3967 43.9318 76.1696 44.0191 75.9426 44.0017C75.7156 43.9842 75.4711 44.0715 75.3139 44.2462C75.1044 44.4906 75.0345 44.8399 75.1568 45.1368C75.2615 45.4511 75.5584 45.6607 75.8902 45.6432C76.7634 45.6432 77.3572 45.2241 77.8985 44.6129C78.178 44.316 78.8765 43.4778 78.9289 43.4254C78.9813 43.4778 79.6798 44.2985 79.9593 44.6129C80.5006 45.2241 81.1119 45.6432 81.9676 45.6432C82.2819 45.6607 82.5788 45.4511 82.6836 45.1368ZM43.6699 51.4412C43.6699 51.4936 43.6873 51.5459 43.6873 51.5983C43.6873 51.738 43.7048 51.8778 43.7048 52.0175V52.2794C43.7048 52.3842 43.6873 52.489 43.6873 52.5938C43.6699 52.6985 43.6699 52.8033 43.6524 52.9081C43.6349 53.0129 43.6175 53.1351 43.6 53.2399C43.5825 53.3447 43.5651 53.4495 43.5476 53.5368C43.2158 55.0212 42.395 56.331 41.2249 57.2915C40.7709 57.7106 40.247 58.0424 39.6707 58.2694C37.9243 58.968 35.7938 59.0029 34.0998 58.1821C33.5584 57.9202 33.052 57.6058 32.5979 57.2216C32.1439 56.8374 31.7247 56.4008 31.3929 55.9119C31.0611 55.4229 30.7817 54.899 30.6071 54.3401C30.5896 54.2528 30.5547 54.183 30.5372 54.0956C29.8561 51.5634 30.5023 48.874 32.4757 47.0927C32.4931 47.0753 32.7202 46.8657 32.8075 46.7784L32.8424 46.7609C32.9123 46.7085 32.9821 46.6561 33.052 46.6037C34.9904 45.2416 37.5052 44.9622 39.6882 45.8877C40.9805 46.4466 41.9934 47.4071 42.7443 48.5946C42.7094 48.5422 42.657 48.4724 42.622 48.42C43.0586 49.0836 43.373 49.8345 43.5476 50.6204C43.5651 50.6902 43.5651 50.7426 43.5825 50.8125C43.6 50.8998 43.6175 50.9697 43.6349 51.0395C43.6524 51.1618 43.6699 51.3015 43.6699 51.4412ZM59.8062 57.7281C59.7713 58.1647 59.5967 58.7584 59.0553 58.8283C57.8154 58.9505 56.9247 57.8852 56.5056 56.8374C56.1389 55.9119 56.1563 54.8466 56.1913 53.7638C56.2262 52.6462 56.2437 51.511 55.8245 50.568C55.5277 49.8869 54.899 49.4329 54.183 49.1884C53.3796 48.9089 52.5064 48.8915 51.738 49.2757C51.1617 49.5726 50.7426 50.0441 50.4108 50.6029C50.0441 51.2316 50.0441 52.0524 50.0615 52.8033C50.0615 52.9605 50.0615 53.1002 50.0615 53.2399C50.0441 54.0258 50.0615 54.8291 50.079 55.615C50.079 56.1738 50.0965 56.7501 50.0965 57.3089C50.0965 57.3613 50.0965 57.3963 50.0965 57.4487C50.0965 57.7455 50.0965 58.0599 49.9568 58.2869C49.9044 58.3742 49.8345 58.4441 49.7472 58.4965C49.101 58.9156 48.158 58.8457 47.442 58.7934C46.499 58.706 46.2719 57.7979 46.2545 57.0819C46.2545 56.6279 46.2545 55.4578 46.2719 54.1131C46.2894 52.0524 46.3069 49.5726 46.2894 48.6819C46.2894 48.647 46.2894 48.6121 46.2894 48.5771C46.2719 47.8786 46.2545 47.18 46.2719 46.4815C46.2719 45.9751 46.4116 45.8004 46.9356 45.9052C47.6865 46.0449 48.2628 46.4466 48.8565 46.8657L48.8915 46.9006C48.874 46.8832 48.874 46.8657 48.8565 46.8657C50.4108 45.748 52.1222 45.1717 54.0607 45.521C54.5322 45.6083 54.7069 45.6432 54.9514 45.6956C55.2657 45.7655 55.5626 45.8703 55.8595 45.9925C56.4183 46.2195 56.9597 46.5339 57.4312 46.9181C59.7364 48.8042 59.8761 51.4936 59.8936 54.2703C59.8586 55.0212 59.8237 57.4836 59.8062 57.7281ZM74.563 54.8291C73.9518 54.8291 72.1181 54.8466 71.8387 54.8466C71.7688 54.8466 71.6815 54.8466 71.6116 54.8466C71.3322 54.8466 71.0877 54.8291 70.9131 54.9514C70.7909 55.0561 70.6337 55.1435 70.4765 55.2133C70.2146 55.3356 69.9526 55.4054 69.6732 55.4403C69.1143 55.5451 68.5206 55.4927 67.9792 55.3181C67.1584 55.0561 66.4773 54.4798 66.0757 53.7289C66.0407 53.6765 66.0058 53.6241 65.9884 53.5543C66.1106 53.5543 73.6025 53.5368 74.1963 53.5368C74.9472 53.4844 75.2965 52.5938 75.3139 51.9476C75.3314 51.6682 75.1393 48.6645 73.1135 46.9356C71.7688 45.783 69.8827 45.259 68.1364 45.4337C68.0665 45.4337 67.9967 45.4511 67.9268 45.4511C65.0104 45.8353 62.6703 48.2104 62.2337 51.1094C61.9019 53.6241 62.9672 56.1214 65.0453 57.6058C66.7917 58.8283 69.0096 59.1601 71.0353 58.4965C72.6071 57.9726 73.7946 57.1168 74.7376 55.7721C74.8599 55.5975 74.9472 55.4054 74.9996 55.2133C75.052 54.8291 74.8075 54.8291 74.5979 54.8466C74.5979 54.8291 74.5805 54.8291 74.563 54.8291ZM24.1281 51.2665H26.8873C27.3414 51.2665 27.7256 51.6333 27.7256 52.1048C27.7256 52.5588 27.3588 52.943 26.8873 52.943H24.1281V55.7023C24.1281 56.1563 23.7613 56.5405 23.2898 56.5405C22.8358 56.5405 22.4516 56.1738 22.4516 55.7023V52.943H19.6923C19.2383 52.943 18.8541 52.5763 18.8541 52.1048C18.8541 51.6507 19.2208 51.2665 19.6923 51.2665H22.4516V48.5247C22.4516 48.0707 22.8183 47.6865 23.2898 47.6865C23.7439 47.6865 24.1281 48.0532 24.1281 48.5247V51.2665ZM67.1933 49.1709C67.4728 48.9788 67.7871 48.8566 68.1189 48.7518C68.4507 48.6645 68.7825 48.6295 69.1318 48.6295C69.4811 48.647 69.8129 48.6994 70.1447 48.8216C70.948 49.101 71.4894 49.7821 71.8911 50.5331C71.8561 50.5331 71.7339 50.5331 71.5593 50.5331C70.5289 50.5331 67.4029 50.5156 66.0582 50.5505C66.2678 49.9742 66.6694 49.4852 67.1933 49.1709ZM39.304 54.2004C39.7755 53.659 40.0724 52.978 40.1073 52.262C40.1771 51.2665 39.7929 50.2886 39.0595 49.6075C38.1863 48.8042 36.9114 48.5771 35.7938 48.9963C34.6761 49.4154 33.8728 50.4283 33.7331 51.6158C33.7331 51.7555 33.7156 51.9651 33.7156 52.0349C33.7156 52.2445 33.7331 52.4541 33.768 52.6462L33.8204 52.8557V52.8732C34.1347 54.0083 35.0254 54.899 36.178 55.1609C37.3131 55.4403 38.5181 55.0736 39.304 54.2004ZM40.1073 52.7509V52.7859C40.1247 52.7859 40.1247 52.7684 40.1073 52.7509Z"
        fill="white" />
    <defs>
        <filter id="filter0_d_101_3" x="0" y="0" width="104" height="104" filterUnits="userSpaceOnUse"
            color-interpolation-filters="sRGB">
            <feFlood flood-opacity="0" result="BackgroundImageFix" />
            <feColorMatrix in="SourceAlpha" type="matrix" values="0 0 0 0 0 0 0 0 0 0 0 0 0 0 0 0 0 0 127 0"
                result="hardAlpha" />
            <feMorphology radius="1" operator="dilate" in="SourceAlpha" result="effect1_dropShadow_101_3" />
            <feOffset />
            <feGaussianBlur stdDeviation="4.5" />
            <feColorMatrix type="matrix" values="0 0 0 0 1 0 0 0 0 1 0 0 0 0 1 0 0 0 0.504999 0" />
            <feBlend mode="normal" in2="BackgroundImageFix" result="effect1_dropShadow_101_3" />
            <feBlend mode="normal" in="SourceGraphic" in2="effect1_dropShadow_101_3" result="shape" />
        </filter>
    </defs>
</svg>